<mxfile host="app.diagrams.net" modified="2022-12-10T19:55:58.188Z" agent="5.0 (Macintosh; Intel Mac OS X 10_15_7) AppleWebKit/537.36 (KHTML, like Gecko) Chrome/108.0.0.0 Safari/537.36" version="20.6.2" etag="yzB2nQlHWqEDu9QU0LtQ" type="github">
  <diagram id="2ZsqQe0dOqjN9ybj5MjV" name="Page-1">
    <mxGraphModel dx="1018" dy="690" grid="1" gridSize="10" guides="1" tooltips="1" connect="1" arrows="1" fold="1" page="1" pageScale="1" pageWidth="850" pageHeight="1100" math="0" shadow="0">
      <root>
        <mxCell id="0" />
        <mxCell id="1" parent="0" />
        <mxCell id="lxGiYIYCSCongt8XNovX-3" style="edgeStyle=orthogonalEdgeStyle;rounded=0;orthogonalLoop=1;jettySize=auto;html=1;entryX=0;entryY=0.5;entryDx=0;entryDy=0;" edge="1" parent="1" source="lxGiYIYCSCongt8XNovX-1" target="lxGiYIYCSCongt8XNovX-2">
          <mxGeometry relative="1" as="geometry" />
        </mxCell>
        <mxCell id="lxGiYIYCSCongt8XNovX-6" style="edgeStyle=orthogonalEdgeStyle;rounded=0;orthogonalLoop=1;jettySize=auto;html=1;entryX=0;entryY=0.5;entryDx=0;entryDy=0;" edge="1" parent="1" source="lxGiYIYCSCongt8XNovX-1" target="lxGiYIYCSCongt8XNovX-4">
          <mxGeometry relative="1" as="geometry" />
        </mxCell>
        <mxCell id="lxGiYIYCSCongt8XNovX-7" style="edgeStyle=orthogonalEdgeStyle;rounded=0;orthogonalLoop=1;jettySize=auto;html=1;entryX=0;entryY=0.5;entryDx=0;entryDy=0;" edge="1" parent="1" source="lxGiYIYCSCongt8XNovX-1" target="lxGiYIYCSCongt8XNovX-5">
          <mxGeometry relative="1" as="geometry" />
        </mxCell>
        <mxCell id="lxGiYIYCSCongt8XNovX-1" value="Entity" style="whiteSpace=wrap;html=1;align=center;fillColor=#ffe6cc;strokeColor=#d79b00;" vertex="1" parent="1">
          <mxGeometry x="110" y="40" width="100" height="40" as="geometry" />
        </mxCell>
        <mxCell id="lxGiYIYCSCongt8XNovX-14" style="edgeStyle=orthogonalEdgeStyle;rounded=0;orthogonalLoop=1;jettySize=auto;html=1;entryX=0;entryY=0.5;entryDx=0;entryDy=0;" edge="1" parent="1" source="lxGiYIYCSCongt8XNovX-2" target="lxGiYIYCSCongt8XNovX-8">
          <mxGeometry relative="1" as="geometry" />
        </mxCell>
        <mxCell id="lxGiYIYCSCongt8XNovX-16" style="edgeStyle=orthogonalEdgeStyle;rounded=0;orthogonalLoop=1;jettySize=auto;html=1;entryX=0;entryY=0.5;entryDx=0;entryDy=0;" edge="1" parent="1" source="lxGiYIYCSCongt8XNovX-2" target="lxGiYIYCSCongt8XNovX-9">
          <mxGeometry relative="1" as="geometry">
            <mxPoint x="290" y="260" as="targetPoint" />
          </mxGeometry>
        </mxCell>
        <mxCell id="lxGiYIYCSCongt8XNovX-17" style="edgeStyle=orthogonalEdgeStyle;rounded=0;orthogonalLoop=1;jettySize=auto;html=1;entryX=0;entryY=0.5;entryDx=0;entryDy=0;" edge="1" parent="1" source="lxGiYIYCSCongt8XNovX-2" target="lxGiYIYCSCongt8XNovX-10">
          <mxGeometry relative="1" as="geometry" />
        </mxCell>
        <mxCell id="lxGiYIYCSCongt8XNovX-2" value="Infrastructure" style="whiteSpace=wrap;html=1;align=center;fillColor=#dae8fc;strokeColor=#6c8ebf;" vertex="1" parent="1">
          <mxGeometry x="200" y="120" width="100" height="40" as="geometry" />
        </mxCell>
        <mxCell id="lxGiYIYCSCongt8XNovX-4" value="Application" style="whiteSpace=wrap;html=1;align=center;fillColor=#f8cecc;strokeColor=#b85450;" vertex="1" parent="1">
          <mxGeometry x="200" y="510" width="100" height="40" as="geometry" />
        </mxCell>
        <mxCell id="lxGiYIYCSCongt8XNovX-5" value="Domain" style="whiteSpace=wrap;html=1;align=center;fillColor=#fff2cc;strokeColor=#d6b656;" vertex="1" parent="1">
          <mxGeometry x="200" y="560" width="100" height="40" as="geometry" />
        </mxCell>
        <mxCell id="lxGiYIYCSCongt8XNovX-8" value="HttpClients" style="whiteSpace=wrap;html=1;align=center;fillColor=#b1ddf0;strokeColor=#10739e;" vertex="1" parent="1">
          <mxGeometry x="300" y="190" width="100" height="40" as="geometry" />
        </mxCell>
        <mxCell id="lxGiYIYCSCongt8XNovX-9" value="Queues" style="whiteSpace=wrap;html=1;align=center;fillColor=#b1ddf0;strokeColor=#10739e;" vertex="1" parent="1">
          <mxGeometry x="300" y="240" width="100" height="40" as="geometry" />
        </mxCell>
        <mxCell id="lxGiYIYCSCongt8XNovX-10" value="Data Bases" style="whiteSpace=wrap;html=1;align=center;fillColor=#b1ddf0;strokeColor=#10739e;" vertex="1" parent="1">
          <mxGeometry x="300" y="290" width="100" height="40" as="geometry" />
        </mxCell>
        <mxCell id="lxGiYIYCSCongt8XNovX-11" value="Repositories" style="whiteSpace=wrap;html=1;align=center;fillColor=#b1ddf0;strokeColor=#10739e;" vertex="1" parent="1">
          <mxGeometry x="300" y="340" width="100" height="40" as="geometry" />
        </mxCell>
        <mxCell id="lxGiYIYCSCongt8XNovX-12" value="Cache" style="whiteSpace=wrap;html=1;align=center;fillColor=#b1ddf0;strokeColor=#10739e;" vertex="1" parent="1">
          <mxGeometry x="300" y="390" width="100" height="40" as="geometry" />
        </mxCell>
        <mxCell id="lxGiYIYCSCongt8XNovX-13" value="Search" style="whiteSpace=wrap;html=1;align=center;fillColor=#b1ddf0;strokeColor=#10739e;" vertex="1" parent="1">
          <mxGeometry x="300" y="440" width="100" height="40" as="geometry" />
        </mxCell>
      </root>
    </mxGraphModel>
  </diagram>
</mxfile>
